<svg id="Ñëîé_1" data-name="Ñëîé 1" xmlns="http://www.w3.org/2000/svg" viewBox="0 0 450 450"><defs><style>.cls-1{fill:#f7931e;}.cls-2{fill:#fccc77;}.cls-3,.cls-8{fill:#f45221;}.cls-4{fill:#572d1a;}.cls-5{fill:#ea1620;}.cls-6{fill:#d30519;}.cls-7{fill:#f2f2f2;}.cls-8{isolation:isolate;opacity:0.2;}.cls-9{fill:#04a813;}.cls-10{fill:#028908;}.cls-11{fill:#fff;}</style></defs><rect class="cls-1" x="69.5" y="252.8" width="316.4" height="165.51" transform="translate(-62.5 52.31) rotate(-11.53)"/><polygon class="cls-2" points="366.16 222.84 56.15 286.11 79.13 211.29 389.14 148.03 366.16 222.84"/><polygon class="cls-3" points="389.14 148.03 366.16 222.84 399.25 385.01 422.24 310.2 389.14 148.03"/><polygon class="cls-4" points="296.13 207.38 152.31 236.73 158.68 218.43 302.49 189.08 296.13 207.38"/><path class="cls-5" d="M235.77,141.5c-12.49-13-35.11-8.33-44.31,15.42a55.62,55.62,0,0,0-14.39-8.77c-21.39-9.07-52.63,18.34-23.27,46,9.92,9.34,50.41,25.27,50.41,25.27S233,190.28,239,174.15,242.59,148.59,235.77,141.5Z"/><path class="cls-6" d="M239,174.15c6-16.13,3.62-25.57-3.19-32.66-12.42-12.9-34.81-8.36-44.13,15l12.79,62.71C206.79,216.8,233.28,189.56,239,174.15Z"/><path class="cls-7" d="M161.51,153.93h0a13,13,0,0,0-5.91,4.33h0a15.1,15.1,0,0,0-2.43,13.54h0a20.37,20.37,0,0,0,3.38,6.52l5.49,7.11-1.62-5.17A48.87,48.87,0,0,1,158.17,167h0a10.33,10.33,0,0,1,2.32-6.87h0a12.87,12.87,0,0,1,6.1-4.15l3.45-1.1-1.7-.74A9.27,9.27,0,0,0,161.51,153.93Z"/><path class="cls-5" d="M315.06,37.26c-16.53-17.18-46.44-11-58.63,20.39a73.76,73.76,0,0,0-19-11.6c-28.31-12-69.63,24.26-30.78,60.87,13.11,12.36,66.69,33.44,66.69,33.44s38.1-38.58,46-59.9S324.08,46.63,315.06,37.26Z"/><path class="cls-6" d="M319.29,80.45c7.88-21.33,4.8-33.83-4.23-43.2C298.63,20.19,269,26.19,256.68,57.07l16.93,83C276.71,136.88,311.76,100.83,319.29,80.45Z"/><path class="cls-7" d="M216.81,53.7h0A17.09,17.09,0,0,0,209,59.43h0a20,20,0,0,0-3.21,17.91h0A27,27,0,0,0,210.25,86l7.27,9.4-2.15-6.83a65.26,65.26,0,0,1-3-17.53h0a13.65,13.65,0,0,1,3.09-9.09h0a17.09,17.09,0,0,1,8.06-5.49L228.1,55l-2.24-1A12.31,12.31,0,0,0,216.81,53.7Z"/><rect class="cls-8" x="226.82" y="236.91" width="157.48" height="165.51" transform="translate(-57.75 67.55) rotate(-11.53)"/><circle class="cls-9" cx="227.1" cy="335.68" r="63.51"/><path class="cls-10" d="M214.4,273.46A63.5,63.5,0,1,1,239.79,397.9"/><path class="cls-11" d="M204.68,341l-.64-3.11,45.55-9.29.63,3.11Zm1.56,7.67-.64-3.11,45.55-9.3.64,3.12Zm8.92,12.82-7.93-38.88,4.55-.93L244,348.38l-2.33.47-6.52-31.94,5.56-1.13,7.93,38.88-4.55.93L211.81,328.9l2.33-.47,6.52,31.94Z"/></svg>