<svg id="Ñëîé_1" data-name="Ñëîé 1" xmlns="http://www.w3.org/2000/svg" viewBox="0 0 450 450"><defs><style>.cls-1{fill:#f7931e;}.cls-2{fill:#fccc77;}.cls-3,.cls-8{fill:#f45221;}.cls-4{fill:#572d1a;}.cls-5{fill:#ea1620;}.cls-6{fill:#d30519;}.cls-7{fill:#f2f2f2;}.cls-8{isolation:isolate;opacity:0.2;}.cls-9{fill:#04a813;}.cls-10{fill:#028908;}.cls-11{fill:#fff;}</style></defs><rect class="cls-1" x="109.78" y="172.08" width="165.51" height="316.4" transform="translate(-161.34 474.96) rotate(-82)"/><polygon class="cls-2" points="360.71 270.36 47.4 226.31 94.07 163.49 407.39 207.53 360.71 270.36"/><polygon class="cls-3" points="407.39 207.53 360.71 270.36 337.67 434.26 384.35 371.44 407.39 207.53"/><polygon class="cls-4" points="299.88 232.37 154.53 211.93 166.65 196.81 312 217.25 299.88 232.37"/><path class="cls-5" d="M265,150.09c-7.43-16.41-30.3-19.59-46.92-.29a55.55,55.55,0,0,0-10.62-13.07c-17.13-15.7-55.73-.32-37.32,35.58,6.22,12.12,39.06,40.68,39.06,40.68s36.89-17.85,47.9-31.05S269.09,159.05,265,150.09Z"/><path class="cls-6" d="M257.13,181.93c11-13.2,12-22.88,7.91-31.84-7.39-16.31-30-19.52-46.6-.64l-8.91,63.39C212.54,211.37,246.61,194.55,257.13,181.93Z"/><path class="cls-7" d="M190.89,137h0a13,13,0,0,0-7,2.11h0A15.08,15.08,0,0,0,177.06,151h0a20.6,20.6,0,0,0,1,7.27l2.81,8.54.19-5.41a49.33,49.33,0,0,1,2.31-13.25h0a10.43,10.43,0,0,1,4.49-5.7h0a12.91,12.91,0,0,1,7.14-1.86l3.62.12-1.36-1.27A9.31,9.31,0,0,0,190.89,137Z"/><path class="cls-5" d="M374.61,78.36c-9.83-21.71-40.08-25.9-62.07-.38a73.59,73.59,0,0,0-14.06-17.3c-22.66-20.78-73.73-.42-49.36,47.08,8.23,16,51.67,53.81,51.67,53.81S349.6,138,364.15,120.49,380,90.22,374.61,78.36Z"/><path class="cls-6" d="M364.16,120.49C378.72,103,380,90.21,374.62,78.36c-9.78-21.58-39.7-25.83-61.65-.84l-11.79,83.85C305.16,159.43,350.25,137.18,364.16,120.49Z"/><path class="cls-7" d="M276.53,61h0a17.17,17.17,0,0,0-9.28,2.78h0a20,20,0,0,0-9,15.82h0a27.26,27.26,0,0,0,1.32,9.61l3.71,11.29.26-7.16a64.83,64.83,0,0,1,3.06-17.52h0a13.68,13.68,0,0,1,5.94-7.53h0A17,17,0,0,1,282,65.83l4.78.16L285,64.31A12.27,12.27,0,0,0,276.53,61Z"/><rect class="cls-8" x="188.46" y="262.61" width="165.51" height="157.48" transform="translate(-104.56 562.4) rotate(-82)"/><circle class="cls-9" cx="191.92" cy="330.19" r="63.51"/><path class="cls-10" d="M200.76,267.31a63.5,63.5,0,1,1-17.68,125.77"/><path class="cls-11" d="M167.92,335.46l.44-3.14,46,6.47-.44,3.14Zm1.09-7.75.44-3.14,46,6.47-.45,3.15Zm3,22.81,5.53-39.29,4.6.64,21.4,35.93-2.36-.33,4.54-32.28,5.61.79-5.52,39.3-4.6-.65-21.46-35.94,2.36.34-4.54,32.28Z"/></svg>